<?xml version="1.0" encoding="iso-8859-1"?>
<!-- Generator: Adobe Illustrator 19.0.0, SVG Export Plug-In . SVG Version: 6.00 Build 0)  -->
<svg version="1.1" id="Capa_1" xmlns="http://www.w3.org/2000/svg" xmlns:xlink="http://www.w3.org/1999/xlink" x="0px" y="0px" viewBox="0 0 480 480" style="enable-background:new 0 0 480 480;" xml:space="preserve">
<style>
path {
  fill: rgba(0, 255, 203, .5);
}
</style>
<g>
	<g>
		<path d="M361.668,138.344l-53.656-53.656V0h-16v88c0,2.122,0.844,4.156,2.344,5.656l53.656,53.656v217.376l-40-40V232
			c0-2.122-0.844-4.156-2.344-5.656l-61.656-61.656V0h-16v85.272c-9.832-11.188-26.872-12.287-38.059-2.455
			c-0.495,0.435-0.975,0.889-1.437,1.359l-29.248,29.248L134.876,125.6c-9.096-3.209-19.048-2.999-28,0.592l-15.824,6.328
			c-9.122,3.64-15.088,12.491-15.04,22.312v7.296c0.013,5.026,1.104,9.991,3.2,14.56l45.544,98.664
			c0.396,0.855,0.937,1.635,1.6,2.304L180.692,332l10.936,50.32c2.912,13.021,14.505,22.253,27.848,22.176
			c1.945-0.002,3.885-0.198,5.792-0.584c15.55-3.038,25.693-18.107,22.654-33.657c-0.015-0.077-0.03-0.154-0.046-0.231
			c-4.8-23.664-12-59.576-12-59.584c-0.239-1.22-0.762-2.365-1.528-3.344l-12.8-16.488l6.824-2.272l44.8,11.2
			c2.012,0.521,4.081,0.79,6.16,0.8c4.464-0.042,8.838-1.261,12.68-3.536V328c0,2.122,0.844,4.156,2.344,5.656l53.656,53.656V480h16
			V144C364.012,141.878,363.169,139.844,361.668,138.344z M228.012,122.4v42.792l-29.32-4.888l-2.6-1.44l12.36-8.24
			c0.878-0.585,1.631-1.338,2.216-2.216L228.012,122.4z M167.588,127.128c0.77-0.386,1.472-0.894,2.08-1.504l30.168-30.16
			c4.425-4.404,11.582-4.388,15.986,0.037c3.789,3.806,4.376,9.753,1.406,14.227L198.244,138.2l-17.88,11.92l-27.84-15.464
			L167.588,127.128z M232.196,373.224c0.697,3.279,0.054,6.701-1.784,9.504c-2.03,2.983-5.193,5.007-8.752,5.6
			c-6.534,1.228-12.872-2.926-14.352-9.408l-11.432-52.616c-0.331-1.497-1.084-2.868-2.168-3.952l-54.992-54.992L93.78,170
			c-1.146-2.467-1.749-5.152-1.768-7.872v-7.296c0.001-3.269,1.99-6.208,5.024-7.424l15.816-6.328
			c6.702-2.707,14.27-2.227,20.576,1.304l58.704,32.608c0.796,0.449,1.665,0.753,2.568,0.896l33.52,5.6
			c5.077,0.85,8.503,5.655,7.653,10.731c-0.751,4.487-4.632,7.775-9.181,7.781h-28.8l-46.312-23.16
			c-3.952-1.975-8.757-0.373-10.733,3.579c-1.053,2.106-1.124,4.569-0.195,6.733l24,56c0.265,0.631,0.615,1.224,1.04,1.76
			l54.832,70.512C222.06,323.072,228.004,352.736,232.196,373.224z M288.524,277.128c-1.289,5.039-6.396,8.101-11.448,6.864
			l-47.128-11.752c-1.474-0.375-3.024-0.313-4.464,0.176l-14.4,4.8L188.372,248h46.184l48.088,18.032
			c4.49,1.683,7.003,6.468,5.84,11.12L288.524,277.128z M292.012,252.864c-1.2-0.706-2.454-1.313-3.752-1.816l0.04-0.024
			l-49.432-18.544c-0.915-0.331-1.883-0.493-2.856-0.48h-58.728l-13.32-31.08l28.472,14.24c1.111,0.554,2.335,0.841,3.576,0.84
			h30.68c12.334-0.032,22.849-8.949,24.896-21.112l40.424,40.424V252.864z"/>
	</g>
</g>
<g>
	<g>
		<path d="M420.012,0v204.688l-21.656,21.656c-1.5,1.5-2.344,3.534-2.344,5.656v248h16V235.312l21.656-21.656
			c1.5-1.5,2.344-3.534,2.344-5.656V0H420.012z"/>
	</g>
</g>
<g>
	<g>
		<path d="M124.012,32h-36c-24.234-0.08-43.945,19.501-44.024,43.735c-0.016,4.945,0.803,9.857,2.424,14.529l-0.08,0.08l0.168,0.168
			c6.167,17.651,22.815,29.477,41.512,29.488c24.288-0.031,43.969-19.712,44-44V40C132.012,35.582,128.431,32,124.012,32z
			 M116.012,76c0,15.464-12.536,28-28,28c-8.459-0.029-16.445-3.903-21.704-10.528c13.939-12.079,31.331-19.456,49.704-21.08V76z
			 M116.012,56.392c-20.311,1.497-39.729,8.959-55.816,21.448c0-0.616-0.184-1.208-0.184-1.84c0-15.464,12.536-28,28-28h28V56.392z"
			/>
	</g>
</g>
<g>
</g>
<g>
</g>
<g>
</g>
<g>
</g>
<g>
</g>
<g>
</g>
<g>
</g>
<g>
</g>
<g>
</g>
<g>
</g>
<g>
</g>
<g>
</g>
<g>
</g>
<g>
</g>
<g>
</g>
</svg>
