<?xml version="1.0" encoding="UTF-8"?>
<svg width="84px" height="84px" viewBox="0 0 84 23" version="1.1" xmlns="http://www.w3.org/2000/svg" xmlns:xlink="http://www.w3.org/1999/xlink">
<style>
path {
  stroke: rgba(0, 255, 203, .5);
}
</style>
    <g id="Page-1" stroke="none" stroke-width="1" fill="none" fill-rule="evenodd">
        <g id="Navi-Copy-3" transform="translate(-903.000000, -2177.000000)" fill-rule="nonzero" stroke-width="3">
            <g id="dots-three-horizontal" transform="translate(905.000000, 2179.000000)">
                <path d="M40.0043478,0 C34.7217391,0 30.4347826,4.25340909 30.4347826,9.5 C30.4347826,14.7465909 34.7217391,19 40.0043478,19 C45.2869565,19 49.5652174,14.7465909 49.5652174,9.5 C49.5652174,4.25340909 45.2869565,0 40.0043478,0 Z M9.56956522,0 C4.28695652,0 0,4.25340909 0,9.5 C0,14.7465909 4.28695652,19 9.56956522,19 C14.8521739,19 19.1304348,14.7422727 19.1304348,9.5 C19.1304348,4.25772727 14.8521739,0 9.56956522,0 Z M70.4391304,0 C65.1565217,0 60.8695652,4.25340909 60.8695652,9.5 C60.8695652,14.7465909 65.1565217,19 70.4391304,19 C75.7217391,19 80,14.7465909 80,9.5 C80,4.25340909 75.7217391,0 70.4391304,0 Z" id="Shape"></path>
            </g>
        </g>
    </g>
</svg>