<?xml version="1.0" encoding="UTF-8"?>
<svg width="82px" height="79px" viewBox="0 0 82 79" version="1.1" xmlns="http://www.w3.org/2000/svg" xmlns:xlink="http://www.w3.org/1999/xlink">
    <!-- Generator: Sketch 59.1 (86144) - https://sketch.com -->
    <title>profit</title>
    <desc>Created with Sketch.</desc>
    <g id="Page-1" stroke="none" stroke-width="1" fill="none" fill-rule="evenodd">
        <g id="Navi-Copy-3" transform="translate(-723.000000, -2138.000000)" fill="#04D0D9" fill-rule="nonzero">
            <g id="Group-3" transform="translate(713.000000, 2138.000000)">
                <g id="profit" transform="translate(10.000000, 0.000000)">
                    <path d="M20.41414,43.5719405 L4.082828,43.5719405 C1.82842652,43.5719405 0,45.400367 0,47.6547685 L0,74.8736218 C0,77.1280233 1.82842652,78.9564498 4.082828,78.9564498 L20.41414,78.9564498 C22.6685415,78.9564498 24.496968,77.1280233 24.496968,74.8736218 L24.496968,47.6547685 C24.496968,45.400367 22.6685415,43.5719405 20.41414,43.5719405 Z M21.7750827,74.8736218 C21.7750827,75.6255426 21.1660608,76.2345645 20.41414,76.2345645 L4.082828,76.2345645 C3.33090722,76.2345645 2.72188534,75.6255426 2.72188534,74.8736218 L2.72188534,47.6547685 C2.72188534,46.9028477 3.33090722,46.2938258 4.082828,46.2938258 L20.41414,46.2938258 C21.1660608,46.2938258 21.7750827,46.9028477 21.7750827,47.6547685 L21.7750827,74.8736218 Z" id="Shape"></path>
                    <path d="M77.5737321,29.9625138 L61.2424201,29.9625138 C58.9880186,29.9625138 57.1595921,31.7909403 57.1595921,34.0453418 L57.1595921,74.8736218 C57.1595921,77.1280233 58.9880186,78.9564498 61.2424201,78.9564498 L77.5737321,78.9564498 C79.8281336,78.9564498 81.6565601,77.1280233 81.6565601,74.8736218 L81.6565601,34.0453418 C81.6565601,31.7909403 79.8281336,29.9625138 77.5737321,29.9625138 Z M78.9346748,74.8736218 C78.9346748,75.6255426 78.3256529,76.2345645 77.5737321,76.2345645 L61.2424201,76.2345645 C60.4904993,76.2345645 59.8814774,75.6255426 59.8814774,74.8736218 L59.8814774,34.0453418 C59.8814774,33.293421 60.4904993,32.6843991 61.2424201,32.6843991 L77.5737321,32.6843991 C78.3256529,32.6843991 78.9346748,33.293421 78.9346748,34.0453418 L78.9346748,74.8736218 Z" id="Shape"></path>
                    <path d="M48.9939361,36.7672271 L32.662624,36.7672271 C30.4082225,36.7672271 28.579796,38.5956536 28.579796,40.8500551 L28.579796,74.8736218 C28.579796,77.1280233 30.4082225,78.9564498 32.662624,78.9564498 L48.9939361,78.9564498 C51.2483375,78.9564498 53.0767641,77.1280233 53.0767641,74.8736218 L53.0767641,40.8500551 C53.0767641,38.5956536 51.2483375,36.7672271 48.9939361,36.7672271 Z M50.3548787,74.8736218 C50.3548787,75.6255426 49.7458568,76.2345645 48.9939361,76.2345645 L32.662624,76.2345645 C31.9107033,76.2345645 31.3016814,75.6255426 31.3016814,74.8736218 L31.3016814,40.8500551 C31.3016814,40.0981343 31.9107033,39.4891125 32.662624,39.4891125 L48.9939361,39.4891125 C49.7458568,39.4891125 50.3548787,40.0981343 50.3548787,40.8500551 L50.3548787,74.8736218 Z" id="Shape"></path>
                    <path d="M50.7536349,28.2028149 C51.2854233,28.7339228 52.1462195,28.7339228 52.6780079,28.2028149 L76.2127894,4.66803335 L76.2127894,6.82648842 C76.2127894,7.5784092 76.8218113,8.18743109 77.5737321,8.18743109 C78.3256529,8.18743109 78.9346748,7.5784092 78.9346748,6.82648842 L78.9346748,1.38271775 C78.9312724,1.22008506 78.8999707,1.05915361 78.8394088,0.907068245 C78.8206958,0.861476709 78.7992609,0.816225387 78.7764652,0.770973978 C78.7254298,0.669924007 78.6618058,0.57465802 78.5862734,0.488578418 C78.4648093,0.338194209 78.3093216,0.219451983 78.1317186,0.14289898 C78.1187896,0.14289898 78.1099435,0.127248183 78.0973548,0.123165268 C77.9462902,0.0632837905 77.7863794,0.0313016814 77.6244272,0.0282395821 C77.6036728,0.0313016814 77.5904036,0.0217750827 77.5737321,0.0217750827 L72.1299614,0.0217750827 C71.3780406,0.0217750827 70.7690187,0.63079697 70.7690187,1.38271775 C70.7690187,2.13463853 71.3780406,2.74366042 72.1299614,2.74366042 L74.2884165,2.74366042 L51.7158214,25.3162555 L39.7490525,13.3494866 C39.2172641,12.8183788 38.3564679,12.8183788 37.8246796,13.3494866 L23.8164967,27.3576695 L17.2934985,20.8346713 C16.7617101,20.3035635 15.9009139,20.3035635 15.3691256,20.8346713 L3.12064154,33.0831553 C2.76679644,33.4244117 2.62491819,33.9310226 2.7494444,34.4066721 C2.87431092,34.8826617 3.24550805,35.2538589 3.72149768,35.3787254 C4.19714719,35.5032516 4.70375807,35.3613733 5.04501447,35.0075283 L16.331312,23.7212307 L22.8543102,30.2442289 C23.3860986,30.7753368 24.2468948,30.7753368 24.7786832,30.2442289 L38.786866,16.236046 L50.7536349,28.2028149 Z" id="Path"></path>
                </g>
            </g>
        </g>
    </g>
</svg>